# xmcd
#
# Track frame offsets:
#	150
#	19725
#	41625
#	56700
#	74400
#	96277
#	115425
#	134325
#	149100
#	166000
#
# Disc length: 2543 seconds
#
# Revision: 4
# Processed by: cddbd v1.5.2PL0 Copyright (c) Steve Scherf et al.
# Submitted via: EZCDAudioConverter 2.1.0.2
#
DISCID=9609ed0a
DTITLE=Snowy White's Blues Agency - Open For Business
DYEAR=2009
DGENRE=Blues Rock
TTITLE0=I Can't Help Myself
TTITLE1=Blues On Me
TTITLE2=Out Of Order
TTITLE3=When You Broke Your Promise
TTITLE4=I Want Your Love
TTITLE5=Out Of My Dreams
TTITLE6=Addicted Man
TTITLE7=Open For Business
TTITLE8=Walking The Streets
TTITLE9=Land Of Plenty
EXTD=
EXTT0=
EXTT1=
EXTT2=
EXTT3=
EXTT4=
EXTT5=
EXTT6=
EXTT7=
EXTT8=
EXTT9=
PLAYORDER=
